# xmcd CD database file
#
# Track frame offsets:
#	150
#	28164
#	51357
#	76285
#	110662
#	134956
#	173422
#	186045
#	212954
#	236520
#	256962
#	277745
#
# Disc length: 4141 seconds
#
# Revision: 0
# Processed by: cddbd v1.5.2PL0 Copyright (c) Steve Scherf et al.
# Submitted via: CDex 1.70beta2
#
DISCID=ab102b0c
DTITLE=Steve Morrison - Live at the basement
DYEAR=2010
DGENRE=Jazz
TTITLE0=St Thomas
TTITLE1=The Penguin
TTITLE2=Mr Bojangles
TTITLE3=Modadji
TTITLE4=Silently
TTITLE5=Mercy Mercy Mercy
TTITLE6=Amazing Grace
TTITLE7=Thats The Way God Planned It
TTITLE8=God Bless The Child
TTITLE9=Sway
TTITLE10=Bogue Blues
TTITLE11=Stormy Monday
EXTD=YEAR: 2010
EXTT0=
EXTT1=
EXTT2=
EXTT3=
EXTT4=
EXTT5=
EXTT6=
EXTT7=
EXTT8=
EXTT9=
EXTT10=
EXTT11=
PLAYORDER=
